<svg xmlns="http://www.w3.org/2000/svg" version="1.1" viewBox="-5.0 -10.0 110.0 110.0">
 <g>
  <path d="m71.875 96.875h-43.75c-13.785 0-25-11.215-25-25v-43.75c0-13.785 11.215-25 25-25h43.75c13.785 0 25 11.215 25 25v43.75c0 13.785-11.215 25-25 25zm-43.75-87.5c-10.34 0-18.75 8.4102-18.75 18.75v43.75c0 10.34 8.4102 18.75 18.75 18.75h43.75c10.34 0 18.75-8.4102 18.75-18.75v-43.75c0-10.34-8.4102-18.75-18.75-18.75z"/>
  <path d="m50 28.129c1.7266 0 3.125 1.7266 3.125 3.125v37.5c0 1.7266-1.3984 3.125-3.125 3.125s-3.125-1.7266-3.125-3.125v-37.5c0-1.7266 1.3984-3.125 3.125-3.125z"/>
  <path d="m31.25 46.879h37.5c1.7266 0 3.125 1.7266 3.125 3.125 0 1.7266-1.3984 3.125-3.125 3.125h-37.5c-1.7266 0-3.125-1.7266-3.125-3.125 0-1.7266 1.3984-3.125 3.125-3.125z"/>
 </g>
</svg>