<svg xmlns="http://www.w3.org/2000/svg" version="1.1" viewBox="-5.0 -10.0 110.0 135.0">
 <path d="m93.75 21.875v6.25h-87.5v-6.25c0-5.1758 4.1992-9.375 9.375-9.375h3.125v-3.125c0-1.7266 1.3984-3.125 3.125-3.125s3.125 1.3984 3.125 3.125v3.125h50v-3.125c0-1.7266 1.3984-3.125 3.125-3.125s3.125 1.3984 3.125 3.125v3.125h3.125c5.1758 0 9.375 4.1992 9.375 9.375zm-87.5 12.5h87.5v50c0 5.1758-4.1992 9.375-9.375 9.375h-68.75c-5.1758 0-9.375-4.1992-9.375-9.375zm59.375 15.625c0 0.82812 0.32812 1.625 0.91406 2.2109 0.58594 0.58594 1.3828 0.91406 2.2109 0.91406h6.25c1.7266 0 3.125-1.3984 3.125-3.125s-1.3984-3.125-3.125-3.125h-6.25c-1.7266 0-3.125 1.3984-3.125 3.125zm0 12.5c0 0.82812 0.32812 1.625 0.91406 2.2109 0.58594 0.58594 1.3828 0.91406 2.2109 0.91406h6.25c1.7266 0 3.125-1.3984 3.125-3.125s-1.3984-3.125-3.125-3.125h-6.25c-1.7266 0-3.125 1.3984-3.125 3.125zm0 12.5c0 0.82812 0.32812 1.625 0.91406 2.2109 0.58594 0.58594 1.3828 0.91406 2.2109 0.91406h6.25c1.7266 0 3.125-1.3984 3.125-3.125s-1.3984-3.125-3.125-3.125h-6.25c-1.7266 0-3.125 1.3984-3.125 3.125zm-21.875-25c0 0.82812 0.32812 1.625 0.91406 2.2109 0.58594 0.58594 1.3828 0.91406 2.2109 0.91406h6.25c1.7266 0 3.125-1.3984 3.125-3.125s-1.3984-3.125-3.125-3.125h-6.25c-1.7266 0-3.125 1.3984-3.125 3.125zm0 12.5c0 0.82812 0.32812 1.625 0.91406 2.2109 0.58594 0.58594 1.3828 0.91406 2.2109 0.91406h6.25c1.7266 0 3.125-1.3984 3.125-3.125s-1.3984-3.125-3.125-3.125h-6.25c-1.7266 0-3.125 1.3984-3.125 3.125zm0 12.5c0 0.82812 0.32812 1.625 0.91406 2.2109 0.58594 0.58594 1.3828 0.91406 2.2109 0.91406h6.25c1.7266 0 3.125-1.3984 3.125-3.125s-1.3984-3.125-3.125-3.125h-6.25c-1.7266 0-3.125 1.3984-3.125 3.125zm-21.875-25c0 0.82812 0.32812 1.625 0.91406 2.2109 0.58594 0.58594 1.3828 0.91406 2.2109 0.91406h6.25c1.7266 0 3.125-1.3984 3.125-3.125s-1.3984-3.125-3.125-3.125h-6.25c-1.7266 0-3.125 1.3984-3.125 3.125zm0 12.5c0 0.82812 0.32812 1.625 0.91406 2.2109 0.58594 0.58594 1.3828 0.91406 2.2109 0.91406h6.25c1.7266 0 3.125-1.3984 3.125-3.125s-1.3984-3.125-3.125-3.125h-6.25c-1.7266 0-3.125 1.3984-3.125 3.125zm0 12.5c0 0.82812 0.32812 1.625 0.91406 2.2109 0.58594 0.58594 1.3828 0.91406 2.2109 0.91406h6.25c1.7266 0 3.125-1.3984 3.125-3.125s-1.3984-3.125-3.125-3.125h-6.25c-1.7266 0-3.125 1.3984-3.125 3.125z"/>
</svg>