<svg xmlns="http://www.w3.org/2000/svg" xmlns:xlink="http://www.w3.org/1999/xlink" version="1.1" x="0px" y="0px" viewBox="0 0 100 125" style="enable-background:new 0 0 100 100;" xml:space="preserve"><style type="text/css">
	.st0{fill-rule:evenodd;clip-rule:evenodd;}
</style><g transform="translate(377.000000, 253.000000)"><path class="st0" d="M-362.8-235.5c0-1.8,1.5-3.3,3.3-3.3h16.3c1.8,0,3.3,1.5,3.3,3.3c0,1.8-1.5,3.3-3.3,3.3h-8.4   l17.2,17.2c1.3,1.3,1.3,3.3,0,4.6c-1.3,1.3-3.3,1.3-4.6,0l-17.2-17.2v8.4c0,1.8-1.5,3.3-3.3,3.3c-1.8,0-3.3-1.5-3.3-3.3V-235.5z    M-310.8-238.8h16.3c1.8,0,3.3,1.5,3.3,3.3v16.3c0,1.8-1.5,3.3-3.3,3.3s-3.3-1.5-3.3-3.3v-8.4l-17.2,17.2c-1.3,1.3-3.3,1.3-4.6,0   c-1.3-1.3-1.3-3.3,0-4.6l17.2-17.2h-8.4c-1.8,0-3.3-1.5-3.3-3.3C-314-237.3-312.5-238.8-310.8-238.8z M-334.5-195.6   c1.3,1.3,1.3,3.3,0,4.6l-17.2,17.2h8.4c1.8,0,3.3,1.5,3.3,3.3s-1.5,3.3-3.3,3.3h-16.3c-1.8,0-3.3-1.5-3.3-3.3v-16.3   c0-1.8,1.5-3.3,3.3-3.3c1.8,0,3.3,1.5,3.3,3.3v8.4l17.2-17.2C-337.8-196.8-335.7-196.8-334.5-195.6z M-319.6-195.6   c1.3-1.3,3.3-1.3,4.6,0l17.2,17.2v-8.4c0-1.8,1.5-3.3,3.3-3.3s3.3,1.5,3.3,3.3v16.3c0,1.8-1.5,3.3-3.3,3.3h-16.3   c-1.8,0-3.3-1.5-3.3-3.3s1.5-3.3,3.3-3.3h8.4l-17.2-17.2C-320.8-192.2-320.8-194.3-319.6-195.6z"/></g></svg>