<svg xmlns="http://www.w3.org/2000/svg" xmlns:xlink="http://www.w3.org/1999/xlink" version="1.1" x="0px" y="0px" viewBox="0 0 95 95" style="enable-background:new 0 0 95 95;" xml:space="preserve"><style type="text/css">
	.st0{fill-rule:evenodd;clip-rule:evenodd;}
</style><path class="st0" d="M11.23,11.23c13-12.99,34.06-12.99,47.06,0c12.99,13,12.99,34.06,0,47.06c-13,13-34.06,13-47.06,0  C-1.76,45.3-1.76,24.23,11.23,11.23L11.23,11.23z M66.95,58.89c-0.28,0.49-0.62,0.95-1.04,1.37l-5.65,5.64  c-0.42,0.42-0.88,0.77-1.37,1.04l17.88,23.46c1.43,1.87,3.39,2.93,5.73,3.08c2.35,0.16,4.43-0.62,6.1-2.29  c0.87-0.87,1.74-1.74,2.61-2.61c1.67-1.66,2.45-3.75,2.29-6.1c-0.16-2.35-1.21-4.31-3.09-5.73L66.95,58.89L66.95,58.89z   M64.83,52.22c-1.48,2.54-3.31,4.94-5.49,7.12c-2.18,2.18-4.58,4.01-7.12,5.49l0.03,0.03c1.92,1.92,5.04,1.92,6.96,0l5.64-5.64  c1.92-1.92,1.92-5.04,0-6.96L64.83,52.22L64.83,52.22z M17.02,17.02c-9.8,9.8-9.8,25.68,0,35.48c9.8,9.8,25.68,9.8,35.48,0  c9.8-9.8,9.8-25.68,0-35.48C42.7,7.23,26.82,7.23,17.02,17.02z"/></svg>