<svg xmlns="http://www.w3.org/2000/svg" version="1.1" viewBox="-5.0 -10.0 110.0 135.0">
 <path d="m21.219 83.938c-1.2656-3.0898-4.3555-5.3398-8.0117-5.3398-3.6523 0-6.7461 2.25-8.0117 5.3398-0.70312 1.5469 0.5625 3.3711 2.25 3.3711h11.664c1.6875-0.14062 2.8125-1.8242 2.1094-3.3711zm-8.0117-71.246c-1.9688 0-3.6523 1.5469-3.6523 3.5117v60.426c1.125-0.42188 2.3906-0.5625 3.6523-0.5625 1.2656 0 2.5312 0.14062 3.6523 0.5625l0.003906-60.426c0.14062-1.9648-1.5469-3.5117-3.6562-3.5117zm81.645 71.246c-1.2656-3.0898-4.3555-5.3398-8.0117-5.3398-3.6523 0-6.7461 2.25-8.0117 5.3398-0.70312 1.5469 0.42188 3.3711 2.25 3.3711h11.664c1.5469-0.14062 2.6719-1.8242 2.1094-3.3711zm-8.0078-71.246c-1.9688 0-3.6523 1.5469-3.6523 3.6523v60.285c1.125-0.42188 2.3906-0.5625 3.6523-0.5625 1.2656 0 2.5312 0.14062 3.6523 0.5625v-60.426c0-1.9648-1.6875-3.5117-3.6523-3.5117zm-26.277 11.945c0.42188-0.28125 0.98438-0.5625 1.2656-0.84375h18.691v-5.3398h-17.148c-0.70312-2.25-2.6719-3.793-4.918-3.793-2.25 0-4.3555 1.5469-4.918 3.6523h-6.8867c-0.70312-2.1094-2.6719-3.6523-5.0586-3.6523-2.3906 0-4.2148 1.5469-4.918 3.6523h-17.145v5.3398h21.5c-0.42188 0.5625-0.5625 1.4062-0.5625 2.1094v1.2656l-5.3398 1.5469s-0.14062 0-0.14062 0.14062l-0.42188 0.13672c-2.5312 0.70313-4.918 2.1094-6.7461 4.0742l-7.0273 7.0273c-0.70312 0.70312-0.70312 1.6875 0 2.3906l3.793 3.6523c0.70312 0.70312 1.6875 0.70312 2.3906 0l1.4062-1.4062v-5.1992c0-0.70312 0.5625-1.2656 1.2656-1.2656 0.70312 0 1.2656 0.5625 1.2656 1.2656v17.566c0 1.2656 0.98438 2.25 2.25 2.25h17.145c1.2656 0 2.25-0.98438 2.25-2.25l-0.003906-17.707c0-0.70312 0.5625-1.2656 1.2656-1.2656 0.70313 0 1.2656 0.5625 1.2656 1.2656v5.1992l1.4062 1.4062c0.70312 0.70312 1.6875 0.70312 2.3906 0l3.793-3.6523c0.70312-0.70312 0.70312-1.6875 0-2.3906l-7.0273-7.0273c-1.8281-1.8281-4.2148-3.2305-6.7461-4.0742h-0.42188l-5.4805-1.5469v-1.2656c0-0.5625 0.28125-1.125 0.84375-1.2656 0.42188-0.28125 0.98438-0.5625 1.2656-0.84375h12.648c-0.42187 0.5625-0.5625 1.4062-0.5625 2.1094v1.2656s-1.9688 0.5625-3.5117 1.125c0.98438 0.5625 1.8281 1.125 2.6719 1.8281l2.25-0.70313 4.6367 1.4062c-0.84375 1.125-1.9688 2.1094-3.6523 2.25l5.0586 5.0586c1.6875 1.6875 1.6875 4.3555 0 6.043l-3.793 3.6523c-0.84375 0.84375-1.8281 1.2656-2.9492 1.2656-0.98438 0-1.8281-0.28125-2.5312-0.84375v8.7109c0 0.84375-0.28125 1.5469-0.5625 2.25h12.086c1.2656 0 2.25-0.98438 2.25-2.25l-0.011719-17.707c0-0.70312 0.5625-1.2656 1.2656-1.2656s1.2656 0.5625 1.2656 1.2656v5.1992l1.4062 1.4062c0.70312 0.70312 1.6875 0.70312 2.3906 0l3.793-3.6523c0.70313-0.70312 0.70313-1.6875 0-2.3906l-7.0273-7.0273c-1.8281-1.8281-4.2148-3.2305-6.7461-4.0742h-0.14062c-0.14062 0-0.14062 0-0.14062-0.14063l-5.3398-1.5469v-1.2656c-0.14062-0.42187 0.14062-0.98047 0.70312-1.1211zm-14.336 6.1797c-0.98438 1.2656-2.5312 2.3906-4.6367 2.3906-2.1094 0-3.5117-1.125-4.6367-2.3906l4.6367-1.4062zm-6.7461-12.363c0.42188-0.70312 1.2656-1.125 2.1094-1.125s1.6875 0.42188 2.1094 1.125zm16.863 0c0.42188-0.70312 1.2656-1.125 2.1094-1.125s1.6875 0.42188 2.1094 1.125z"/>
</svg>