<svg xmlns="http://www.w3.org/2000/svg" version="1.1" viewBox="-5.0 -10.0 110.0 135.0">
 <g>
  <path d="m50 24.164c1.7266 0 3.125-1.3984 3.125-3.125v-4.4961c0-1.7266-1.3984-3.125-3.125-3.125s-3.125 1.3984-3.125 3.125v4.4961c0 1.7266 1.3984 3.125 3.125 3.125z"/>
  <path d="m83.004 57.168h4.4961c1.7266 0 3.125-1.3984 3.125-3.125 0-1.7266-1.3984-3.125-3.125-3.125h-4.4961c-1.7266 0-3.125 1.3984-3.125 3.125 0 1.7266 1.3984 3.125 3.125 3.125z"/>
  <path d="m12.5 57.168h4.4961c1.7266 0 3.125-1.3984 3.125-3.125 0-1.7266-1.3984-3.125-3.125-3.125h-4.4961c-1.7266 0-3.125 1.3984-3.125 3.125 0 1.7266 1.3984 3.125 3.125 3.125z"/>
  <path d="m73.336 33.828c0.80078 0 1.6016-0.30469 2.207-0.91797l3.1797-3.1797c1.2227-1.2227 1.2227-3.1992 0-4.4219s-3.2031-1.2227-4.4219 0l-3.1797 3.1797c-1.2227 1.2227-1.2227 3.1992 0 4.4219 0.60938 0.60938 1.4102 0.91797 2.207 0.91797z"/>
  <path d="m24.453 32.914c0.60938 0.60938 1.4102 0.91797 2.207 0.91797 0.80078 0 1.6016-0.30469 2.207-0.91797 1.2227-1.2148 1.2227-3.1992 0-4.4219l-3.1797-3.1797c-1.2227-1.2227-3.1992-1.2227-4.4219 0-1.2227 1.2148-1.2227 3.1992 0 4.4219l3.1797 3.1797z"/>
  <path d="m33.75 48.793c1.418-0.33203 3.043-0.5 4.668-0.5 5.125 0 10.168 1.793 14.082 4.875 0.54297-0.082031 1.125-0.082031 1.668-0.082031 4.957 0 9.707 2.125 13.043 5.582 1.168-0.25 2.332-0.33203 3.5-0.33203 0.54297 0 1.082 0.042968 1.625 0.042968 0.29297-1.418 0.41797-2.875 0.41797-4.332 0-12.543-10.207-22.75-22.75-22.75-11.582 0-21.168 8.707-22.543 19.918 1.957-1.125 4.043-1.957 6.293-2.418z"/>
  <path d="m83.875 74.293c-2.0391-7.875-11.824-12.152-19.082-8.25-2.3242-5.2344-8.7695-8.0078-14.168-6.125-2.4102-2.7148-5.7891-4.4844-9.3555-5.1133-0.019531 0-0.042969-0.011719-0.0625-0.011719-0.0625-0.015625-0.125-0.007813-0.19141-0.015625-0.51953-0.082032-1.043-0.14844-1.5664-0.18359-0.11328-0.019531-0.22656-0.050781-0.32422-0.050781-0.20703 0-0.375-0.042969-0.54297-0.042969s-0.33203 0-0.5 0.042969c0.22656 0 0.43359 0.023437 0.65234 0.035156-1.2539-0.023437-2.5117 0.066406-3.7383 0.33984-6.1953 1.2539-11.262 6.6602-12.25 12.875-8.6328-1.1992-19.348 14.312-10.043 18.797 1.1992-1.6172 82.023 3.8633 77.918-3.3359-0.29297-4.168-2.957-7.582-6.75-8.957z"/>
 </g>
</svg>