<svg xmlns="http://www.w3.org/2000/svg" version="1.1" viewBox="-5.0 -10.0 110.0 135.0">
 <g>
  <path d="m44.445 30.555c0 4.5977 3.7344 8.332 8.332 8.332h31.945c6.125 0 11.109-4.9844 11.109-11.109s-4.9844-11.109-11.109-11.109c-0.54297 0-1.0977 0.042969-1.6406 0.125-1.2656-7.1953-7.582-12.625-15.027-12.625-8.4297 0-15.277 6.8477-15.277 15.277 0 0.92969 0.082031 1.8594 0.26562 2.7773-4.7344-0.17969-8.5977 3.6523-8.5977 8.332z"/>
  <path d="m60.098 66.609c8.3906-0.55469 14.902-7.4844 14.902-15.918 0-3.3477-1.0273-6.457-2.8047-9.0273h-19.418c-6.125 0-11.109-4.9844-11.109-11.109 0-3.0156 1.25-5.9453 3.418-8.0273 0.95703-0.92969 2.0547-1.668 3.25-2.1797-2.8594-1.457-6.0703-2.293-9.4453-2.293-11.484 0-20.832 9.3477-20.832 20.832-7.6523 0-13.891 6.2344-13.891 13.891 0 7.6523 6.2344 13.891 13.891 13.891h41.668c0.125 0 0.26563-0.015625 0.375-0.054688z"/>
  <path d="m86.109 76.391h5.4023c2.1094 0 3.9453-1.5 4.2656-3.4727 0.19531-1.2227-0.14062-2.457-0.92969-3.3906-0.80469-0.92969-1.957-1.4727-3.1797-1.4727h-24.848c-2.1094 0-3.9453 1.5-4.2656 3.4727-0.19531 1.2227 0.14062 2.457 0.92969 3.3906 0.80469 0.92969 1.957 1.4727 3.1797 1.4727h2.7773c1.5273 0 2.7773 1.25 2.7773 2.7773 0 1.5273-1.25 2.7773-2.7773 2.7773h-19.207c-3.668 0-6.8203 2.75-7.1523 6.2656-0.17969 1.957 0.45703 3.9023 1.7773 5.3477 1.3203 1.4453 3.1797 2.2773 5.1406 2.2773h38.891c1.957 0 3.8203-0.83203 5.1406-2.2773 1.3203-1.4453 1.957-3.3906 1.7773-5.3477-0.33203-3.5156-3.4844-6.2656-7.1523-6.2656h-2.543c-1.5273 0-2.7773-1.25-2.7773-2.7773 0-1.5273 1.25-2.7773 2.7773-2.7773z"/>
 </g>
</svg>