<svg xmlns="http://www.w3.org/2000/svg" xmlns:xlink="http://www.w3.org/1999/xlink" xmlns:serif="http://www.serif.com/" viewBox="0 0 32 40" version="1.1" xml:space="preserve" style="" x="0px" y="0px" fill-rule="evenodd" clip-rule="evenodd" stroke-linejoin="round" stroke-miterlimit="2"><path d="M24.359,2c-1.708,-0.008 -4.436,0.046 -6.836,0.387c-1.776,0.251 -3.375,0.68 -4.347,1.304c-2.209,1.418 -3.371,4.05 -3.135,6.58c-3.528,2.563 -4.979,6.397 -4.979,6.397c-0.193,0.516 0.071,1.093 0.586,1.287c0.518,0.194 1.094,-0.068 1.288,-0.584c-0,0 1.066,-2.863 3.648,-5.016c0.053,0.121 0.109,0.24 0.17,0.358c1.651,3.18 5.448,4.187 8.476,2.242c0.963,-0.618 2.086,-1.935 3.159,-3.502c2.333,-3.409 4.513,-7.992 4.513,-7.992c0.146,-0.303 0.128,-0.658 -0.047,-0.945c-0.172,-0.288 -0.479,-0.468 -0.814,-0.483c0,0 -0.657,-0.028 -1.682,-0.033Zm0.043,1.998c-0.802,1.574 -2.201,4.19 -3.664,6.326c-0.892,1.305 -1.788,2.435 -2.59,2.949c-2.007,1.289 -4.526,0.628 -5.621,-1.48c-0.099,-0.192 -0.179,-0.39 -0.25,-0.59c1.299,-0.706 2.861,-1.182 4.721,-1.182c0.552,0 1,-0.448 1,-1.001c0,-0.552 -0.448,-1 -1,-1c-1.912,-0 -3.56,0.42 -4.969,1.076c0.147,-1.478 0.934,-2.893 2.227,-3.723c0.791,-0.508 2.106,-0.802 3.549,-1.006c2.323,-0.331 4.967,-0.379 6.597,-0.369Zm2.598,6.002c-0.323,0 -0.626,0.155 -0.814,0.418c-0,-0 -1.035,1.452 -1.657,2.758c-0.328,0.689 -0.529,1.356 -0.529,1.824c0,1.656 1.344,3 3,3c1.656,0 3,-1.344 3,-3c0,-0.468 -0.201,-1.135 -0.529,-1.824c-0.622,-1.306 -1.657,-2.758 -1.657,-2.758c-0.188,-0.263 -0.491,-0.418 -0.814,-0.418Zm0,2.826c0.139,0.229 0.282,0.474 0.416,0.723c0.293,0.541 0.584,1.085 0.584,1.451c0,0.552 -0.448,1 -1,1c-0.552,0 -1,-0.448 -1,-1c0,-0.366 0.291,-0.91 0.584,-1.451c0.134,-0.249 0.277,-0.494 0.416,-0.723Zm-12,4.174c-0.386,0 -0.736,0.222 -0.902,0.57c-0,0 -2.098,4.505 -2.098,6.43c0,1.656 1.344,3 3,3c1.656,0 3,-1.344 3,-3c0,-1.925 -2.098,-6.43 -2.098,-6.43c-0.166,-0.348 -0.516,-0.57 -0.902,-0.57Zm8.006,1c-0.349,0 -0.671,0.181 -0.852,0.479c0,-0 -1.513,2.48 -2.422,4.71c-0.434,1.069 -0.718,2.091 -0.718,2.817c-0,2.204 1.787,3.994 3.992,3.994c2.205,0 3.994,-1.79 3.994,-3.994c0,-0.726 -0.287,-1.748 -0.721,-2.817c-0.908,-2.23 -2.42,-4.71 -2.42,-4.71c-0.181,-0.298 -0.504,-0.479 -0.853,-0.479Zm-8.006,2.467c0.491,1.207 1,2.667 1,3.533c0,0.552 -0.448,1 -1,1c-0.552,0 -1,-0.448 -1,-1c0,-0.866 0.509,-2.326 1,-3.533Zm8.006,0.545c0.455,0.835 1.007,1.911 1.422,2.931c0.32,0.787 0.572,1.528 0.572,2.063c0,1.1 -0.894,1.994 -1.994,1.994c-1.1,0 -1.992,-0.894 -1.992,-1.994c-0,-0.535 0.252,-1.276 0.572,-2.063c0.415,-1.02 0.965,-2.096 1.42,-2.931Z"/></svg>