<svg xmlns="http://www.w3.org/2000/svg" version="1.1" viewBox="-5.0 -10.0 110.0 135.0">
 <g>
  <path d="m69.707 32.59c0-5.0938-4.1445-9.2344-9.2344-9.2344-2.3828 0-4.5469 0.91406-6.1875 2.3984v13.676c1.6406 1.4844 3.8047 2.3984 6.1875 2.3984 5.0938 0 9.2344-4.1445 9.2344-9.2344z"/>
  <path d="m80.902 33.258c-0.27734-0.40234-0.27734-0.94141 0-1.3398l2.1094-3.0547c0.76953-1.1172 0.96875-2.4922 0.55078-3.7812-0.41797-1.2891-1.3945-2.2812-2.6719-2.7305l-3.4961-1.2227c-0.46094-0.16406-0.78125-0.60156-0.79297-1.0898l-0.085937-3.7109c-0.03125-1.3516-0.67578-2.582-1.7734-3.3789-1.0938-0.79688-2.4688-1.0273-3.7617-0.64453l-3.5625 1.0586c-0.46484 0.13672-0.97656-0.027343-1.2734-0.41406l-2.2539-2.9492c-0.82422-1.0742-2.0703-1.6914-3.4219-1.6914s-2.6016 0.61719-3.4219 1.6914l-2.25 2.9492c-0.13281 0.17578-0.31641 0.29688-0.51562 0.375v8.5781c1.8242-1.0586 3.9336-1.6758 6.1875-1.6758 6.8164 0 12.359 5.5469 12.359 12.359 0 6.8164-5.5469 12.359-12.359 12.359-2.2539 0-4.3633-0.61719-6.1875-1.6758v8.5781c0.19922 0.078125 0.37891 0.19922 0.51172 0.375l2.2539 2.9492c0.82422 1.0742 2.0703 1.6914 3.4219 1.6914s2.6016-0.61719 3.4219-1.6914l2.25-2.9492c0.29688-0.39062 0.80859-0.55859 1.2773-0.41406l3.5625 1.0586c1.2969 0.38672 2.668 0.15234 3.7617-0.64453s1.7383-2.0273 1.7734-3.3789l0.085937-3.7109c0.011719-0.48828 0.32813-0.92578 0.79297-1.0898l3.4961-1.2227c1.2773-0.44922 2.2539-1.4453 2.6719-2.7305 0.41797-1.2891 0.21875-2.6641-0.55078-3.7812l-2.1094-3.0547z"/>
  <path d="m51.723 75.219c0 6.7812-5.5 12.281-12.281 12.281s-12.281-5.5-12.281-12.281 5.5-12.281 12.281-12.281 12.281 5.5 12.281 12.281"/>
  <path d="m41.395 15.332c0-1.0781-0.875-1.9531-1.9531-1.9531s-1.9531 0.875-1.9531 1.9531v12.5h3.9062z"/>
  <path d="m41.395 59.953v-28.996h-3.9062v28.996c0.64062-0.082031 1.2891-0.13672 1.9531-0.13672 0.66406 0 1.3125 0.054688 1.9531 0.13672z"/>
  <path d="m51.16 55.18v-45.805c0-4.3086-3.5039-7.8125-7.8125-7.8125h-7.8125c-4.3086 0-7.8125 3.5039-7.8125 7.8125v45.805c-7.1172 4.1641-11.5 11.758-11.5 20.039 0 12.801 10.414 23.219 23.219 23.219 12.801 0 23.219-10.414 23.219-23.219 0-8.2812-4.3828-15.875-11.5-20.039zm-11.719 35.445c-8.4961 0-15.406-6.9102-15.406-15.406 0-6.7148 4.3242-12.422 10.328-14.527v-45.359c0-2.8008 2.2773-5.0781 5.0781-5.0781 2.8008 0 5.0781 2.2773 5.0781 5.0781v45.359c6.0039 2.1055 10.328 7.8125 10.328 14.527 0 8.4961-6.9102 15.406-15.406 15.406z"/>
 </g>
</svg>