<svg xmlns="http://www.w3.org/2000/svg" version="1.1" viewBox="-5.0 -10.0 110.0 135.0">
 <g>
  <path d="m25.871 27.859c3.1094-4.0195 6.6602-7.7305 10.57-10.91 1.9609-1.5781 4.0195-3.0391 6.1406-4.1992 2.0898-1.1094 4.4492-2.0898 5.7812-1.6211 0.44141 0.12109 0.94922 0.28906 1.4414 0.46875 0.51172 0.25 1.0195 0.44922 1.5312 0.73047l1.5391 0.89062 1.5117 1.0195c1.9805 1.4492 3.8906 3.0391 5.6602 4.8086 3.5898 3.4805 6.6992 7.4688 9.2891 11.68 1.2383 1.9609 2.5195 4.4219 4.0195 6.1211 1.4492 1.7109 3.1797 2.7305 5.4492 1.6484 1.8398-0.87891 1.9219-2.8984 1.1484-5.2305-0.80078-2.3008-2.4609-4.8008-3.8398-6.75-3.1094-4.4492-6.6992-8.5195-10.711-12.18-2.0508-1.7891-4.1289-3.5508-6.4609-5.1016-2.3516-1.5391-4.7188-3.0195-7.9102-4.0117-1.3906-0.53906-4.0195-0.73828-5.7109-0.25-1.7383 0.42969-3.1211 1.0586-4.4492 1.7305-2.5898 1.3711-4.8398 2.9805-6.9805 4.6797-4.25 3.4219-8 7.2891-11.391 11.469-3.5312 4.3711-6.6211 9.1602-8.9609 14.391-2.3203 5.2188-3.9609 10.949-4.0117 16.949 0 2.9609 0.28125 5.9102 0.94141 8.8008 0.67969 2.8789 1.6719 5.6914 2.9609 8.3516 2.6484 5.2891 6.4805 9.9883 11.211 13.531 0.37891 0.30078 0.78906 0.62109 1.2109 0.94922 0.44141 0.30859 0.87891 0.62109 1.3281 0.92969 0.89062 0.64844 1.8594 1.1602 2.7695 1.5391 1.8398 0.73047 3.5 0.64844 4.2812-0.98828 0.85156-1.8086-0.03125-2.9492-1.3984-3.8789-1.3516-0.96094-3.2617-1.8008-4.5-2.7891-7.8789-5.9492-12.852-15.488-13-25.34-0.12891-4.8789 0.98047-9.7891 2.8984-14.422 1.9219-4.6289 4.5508-9.0117 7.6484-13.031z"/>
  <path d="m90.25 87.059c-0.85938-4.9883-8.2891-4.8008-8.6289 0.32031-0.71094 6.9688 10.609 6.0703 8.6289-0.32031z"/>
  <path d="m58.531 61.141c-0.85938-4.9883-8.2891-4.8008-8.6289 0.32031-0.71094 6.9688 10.609 6.0703 8.6289-0.32031z"/>
  <path d="m85.879 56.461c-3.0586-2.5391-3.3203-0.42188-4.0508 0.42187-9.0898 10.512-16.59 22.301-27.352 31.461-1.2617 1.0703-3.0195 2.6719 0.92969 5.7383 3.2383 2.5195 4.2617 0.5 5.1992-0.66016 4.2891-5.2695 8.0703-10.941 12.289-16.25 4.4219-5.5586 8.8516-11.102 13.238-16.68 0.71875-0.92188 2.5703-1.6602-0.26172-4.0117z"/>
 </g>
</svg>