<svg xmlns="http://www.w3.org/2000/svg" viewBox="0 0 128 160" x="0px" y="0px"><title>20</title><g data-name="1"><path d="M64,8.72318A46.35788,46.35788,0,0,0,49.735,99.19067v12.95365h3.56624v7.1325h3.56625v-7.1325h14.265v7.1325h3.56625v-7.1325H78.265V99.19067A46.35788,46.35788,0,0,0,64,8.72318Zm10.69874,99.8549H53.30126v-8.39235a46.05682,46.05682,0,0,0,21.39748,0ZM64,97.87934a42.795,42.795,0,1,1,42.795-42.795A42.844,42.844,0,0,1,64,97.87934Zm1.78312-74.89117H62.21688V15.85568h3.56624ZM46.40733,28.179l-3.56624-6.17639,3.08912-1.78313,3.56624,6.17639ZM35.31146,40.58084l-6.17639-3.56625,1.78312-3.08912,6.17639,3.56625ZM31.90378,56.86751H24.77129V53.30126h7.13249ZM37.09458,72.677,30.91819,76.2433l-1.78312-3.08912,6.17639-3.56625Zm55.59385-3.08912,6.17639,3.56625L97.0817,76.2433,90.90531,72.677Zm3.40779-16.28667h7.13249v3.56625H96.09622ZM90.90531,37.49172l6.17639-3.56625,1.78312,3.08912-6.17639,3.56625ZM81.59267,28.179l-3.08912-1.78313,3.56624-6.17639,3.08912,1.78313ZM35.90188,63.94591l21.86481-5.46582a7.08411,7.08411,0,1,0-.89363-3.45067L35.03818,60.48774ZM64,51.51814a3.56625,3.56625,0,1,1-3.56625,3.56624A3.571,3.571,0,0,1,64,51.51814ZM89.4723,80.02025l2.54909,2.49358a39.17283,39.17283,0,0,1-56.04278,0l2.54909-2.49358a35.60765,35.60765,0,0,0,50.9446,0Z"/></g></svg>