<svg xmlns="http://www.w3.org/2000/svg" xmlns:xlink="http://www.w3.org/1999/xlink" version="1.1" x="0px" y="0px" viewBox="0 0 100 125" style="enable-background:new 0 0 100 100;" xml:space="preserve"><g><g><path d="M56.16,19.57c-1.71-2.97-6-2.97-7.71,0L31.88,48.25c-9.07,15.72,2.27,35.36,20.42,35.36c18.15,0,29.49-19.64,20.42-35.36    L56.16,19.57z M37.7,55.08c0-2.95,2.4-5.35,5.35-5.35s5.35,2.4,5.35,5.35c0,2.95-2.4,5.35-5.35,5.35S37.7,58.03,37.7,55.08z     M47.37,66.77c-0.35,0.4-0.85,0.6-1.34,0.6c-0.43,0-0.85-0.15-1.2-0.46c-0.74-0.66-0.8-1.8-0.14-2.54l12.55-14.06    c0.66-0.74,1.8-0.8,2.54-0.14c0.74,0.66,0.8,1.8,0.14,2.54L47.37,66.77z M61.56,67.37c-2.95,0-5.35-2.4-5.35-5.35    c0-2.95,2.4-5.35,5.35-5.35s5.35,2.4,5.35,5.35C66.91,64.97,64.51,67.37,61.56,67.37z"/><g><path d="M43.05,53.32c-0.97,0-1.76,0.79-1.76,1.76c0,0.97,0.79,1.76,1.76,1.76c0.97,0,1.76-0.79,1.76-1.76     C44.81,54.1,44.02,53.32,43.05,53.32z"/><path d="M61.56,60.26c-0.97,0-1.76,0.79-1.76,1.76c0,0.97,0.79,1.76,1.76,1.76c0.97,0,1.76-0.79,1.76-1.76     C63.32,61.05,62.53,60.26,61.56,60.26z"/></g></g><path d="M85.62,30.78l-4.55-7.88c-0.47-0.82-1.65-0.82-2.12,0l-4.55,7.88c-2.5,4.32,0.62,9.72,5.61,9.72S88.11,35.1,85.62,30.78z"/><path d="M21.04,66c-0.47-0.82-1.65-0.82-2.12,0l-4.55,7.88c-2.5,4.32,0.62,9.72,5.61,9.72s8.1-5.4,5.61-9.72L21.04,66z"/></g></svg>