<svg xmlns="http://www.w3.org/2000/svg" version="1.1" viewBox="-5.0 -10.0 110.0 135.0">
 <path d="m77.094 25.656c-2.5625-11.219-12.625-19.406-24.344-19.406-10.531 0-19.969 6.75-23.5 16.469-0.375-0.03125-0.75-0.0625-1.125-0.0625-6.25 0-11.312 5.0938-11.312 11.344 0 0.40625 0 0.8125 0.0625 1.2188-3.375 2-5.5625 5.6562-5.5625 9.7188 0 6.2188 5.0938 11.312 11.344 11.312h49.219c8.25 0 15.188-5.9375 16.5-13.969 0.1875-0.90625 0.3125-1.875 0.3125-2.8438 0-6.8438-4.9375-12.562-11.594-13.781zm-13.031 5.5938c-1.7188 0-3.125-1.4062-3.125-3.125 0-2.5938-2.0938-4.6875-4.6875-4.6875-1.7188 0-3.125-1.4062-3.125-3.125s1.4062-3.125 3.125-3.125c6.0312 0 10.938 4.9062 10.938 10.938 0 1.7188-1.4062 3.125-3.125 3.125zm14.066 43.75c-1.1484 0-2.25-0.63281-2.8008-1.7266l-3.125-6.25c-0.77344-1.543-0.14844-3.4219 1.3984-4.1953 1.543-0.77344 3.4219-0.14453 4.1953 1.3984l3.125 6.25c0.77344 1.543 0.14844 3.4219-1.3984 4.1953-0.44922 0.22656-0.92578 0.32812-1.3945 0.32812zm-50 0c-1.1484 0-2.25-0.63281-2.8008-1.7266l-3.125-6.25c-0.77344-1.543-0.14844-3.4219 1.3984-4.1953 1.5469-0.77344 3.4219-0.14453 4.1953 1.3984l3.125 6.25c0.77344 1.543 0.14844 3.4219-1.3984 4.1953-0.44922 0.22656-0.92578 0.32812-1.3945 0.32812zm25 0c-1.1484 0-2.25-0.63281-2.8008-1.7266l-3.125-6.25c-0.77344-1.543-0.14844-3.4219 1.3984-4.1953 1.5508-0.77344 3.4219-0.14453 4.1953 1.3984l3.125 6.25c0.77344 1.543 0.14844 3.4219-1.3984 4.1953-0.44922 0.22656-0.92578 0.32812-1.3945 0.32812zm12.5 18.75c-1.1484 0-2.25-0.63281-2.8008-1.7266l-3.125-6.25c-0.77344-1.543-0.14844-3.4219 1.3984-4.1953 1.5508-0.77344 3.4219-0.14453 4.1953 1.3984l3.125 6.25c0.77344 1.543 0.14844 3.4219-1.3984 4.1953-0.44922 0.22656-0.92578 0.32812-1.3945 0.32812zm-25 0c-1.1484 0-2.25-0.63281-2.8008-1.7266l-3.125-6.25c-0.77344-1.543-0.14844-3.4219 1.3984-4.1953 1.543-0.77344 3.4219-0.14453 4.1953 1.3984l3.125 6.25c0.77344 1.543 0.14844 3.4219-1.3984 4.1953-0.44922 0.22656-0.92578 0.32812-1.3945 0.32812z"/>
</svg>