<svg xmlns="http://www.w3.org/2000/svg" xmlns:xlink="http://www.w3.org/1999/xlink" version="1.1" x="0px" y="0px" viewBox="0 0 100 125" enable-background="new 0 0 100 100" xml:space="preserve"><g><path fill-rule="evenodd" clip-rule="evenodd" d="M53.295,56.804c0.308-0.178,0.403-0.497,0.24-0.779   c-0.156-0.271-0.49-0.346-0.789-0.174c-0.386,0.221-0.77,0.443-1.156,0.665c-0.192,0.111-0.386,0.223-0.597,0.344   c0.009-0.049,0.011-0.076,0.018-0.103c0.112-0.421,0.227-0.841,0.337-1.263c0.059-0.229-0.023-0.457-0.205-0.586   c-0.316-0.227-0.748-0.082-0.854,0.297c-0.154,0.544-0.297,1.092-0.443,1.639c-0.058,0.216-0.128,0.43-0.164,0.65   c-0.018,0.102-0.053,0.154-0.137,0.203c-0.535,0.304-1.067,0.613-1.602,0.92c-0.221,0.127-0.441,0.254-0.672,0.385   c-0.006-0.032-0.012-0.047-0.012-0.063c0-0.906,0-1.812,0.002-2.717c0-0.036,0.02-0.08,0.044-0.105   c0.548-0.549,1.098-1.094,1.646-1.642c0.241-0.241,0.251-0.583,0.028-0.808c-0.219-0.221-0.572-0.208-0.811,0.029   c-0.265,0.266-0.529,0.531-0.795,0.796c-0.029,0.029-0.063,0.054-0.117,0.101c0-0.125,0-0.219,0-0.311c0-0.559,0.002-1.117,0-1.678   c-0.002-0.34-0.25-0.572-0.59-0.558c-0.293,0.012-0.512,0.259-0.512,0.591c-0.003,0.625-0.002,1.249-0.002,1.873   c0,0.041,0,0.082,0,0.154c-0.059-0.057-0.091-0.086-0.122-0.117c-0.288-0.289-0.577-0.576-0.865-0.865   c-0.158-0.159-0.349-0.21-0.561-0.15c-0.396,0.111-0.53,0.604-0.243,0.902c0.228,0.239,0.465,0.47,0.699,0.702   c0.318,0.317,0.629,0.642,0.959,0.945c0.109,0.101,0.137,0.197,0.136,0.333c-0.005,0.82-0.003,1.641-0.003,2.461   c0,0.042,0,0.084,0,0.145c-0.061-0.032-0.1-0.052-0.139-0.073c-0.724-0.417-1.447-0.836-2.173-1.251   c-0.089-0.051-0.132-0.105-0.159-0.215c-0.197-0.773-0.404-1.545-0.621-2.313c-0.03-0.104-0.115-0.209-0.203-0.278   c-0.188-0.149-0.444-0.139-0.639-0.001c-0.191,0.134-0.269,0.367-0.201,0.62c0.106,0.401,0.216,0.802,0.324,1.202   c0.009,0.037,0.014,0.073,0.025,0.129c-0.061-0.033-0.1-0.053-0.139-0.074c-0.547-0.316-1.094-0.633-1.643-0.947   c-0.262-0.15-0.572-0.085-0.738,0.152c-0.188,0.268-0.111,0.622,0.18,0.795c0.35,0.207,0.705,0.407,1.059,0.611   c0.219,0.125,0.436,0.252,0.672,0.389c-0.053,0.018-0.082,0.027-0.113,0.037c-0.378,0.102-0.756,0.201-1.133,0.305   c-0.32,0.088-0.496,0.371-0.418,0.667c0.085,0.319,0.367,0.481,0.703,0.394c0.736-0.193,1.472-0.391,2.206-0.592   c0.077-0.021,0.136-0.02,0.205,0.021c0.546,0.318,1.095,0.633,1.642,0.948c0.242,0.14,0.484,0.279,0.738,0.427   c-0.04,0.026-0.066,0.045-0.093,0.061c-0.702,0.404-1.407,0.809-2.108,1.217c-0.112,0.066-0.2,0.087-0.343,0.045   c-0.755-0.219-1.515-0.417-2.276-0.61c-0.102-0.026-0.23-0.007-0.332,0.03c-0.221,0.078-0.342,0.288-0.334,0.53   c0.008,0.223,0.15,0.421,0.377,0.49c0.27,0.081,0.543,0.148,0.814,0.222c0.186,0.05,0.371,0.101,0.58,0.156   c-0.056,0.037-0.09,0.059-0.123,0.078c-0.545,0.314-1.088,0.628-1.633,0.941c-0.303,0.174-0.4,0.496-0.236,0.781   c0.154,0.266,0.489,0.344,0.779,0.177c0.531-0.304,1.061-0.61,1.59-0.915c0.029-0.018,0.062-0.031,0.115-0.059   c-0.018,0.08-0.029,0.135-0.043,0.188c-0.096,0.362-0.198,0.724-0.29,1.087c-0.075,0.298,0.096,0.583,0.388,0.665   c0.287,0.08,0.584-0.086,0.673-0.381c0.04-0.132,0.073-0.266,0.11-0.4c0.16-0.598,0.324-1.193,0.475-1.794   c0.031-0.12,0.088-0.183,0.188-0.239c0.639-0.363,1.273-0.731,1.909-1.098c0.126-0.072,0.252-0.145,0.398-0.229   c0,0.065,0,0.109,0,0.152c0,0.779-0.003,1.559,0.003,2.338c0,0.153-0.033,0.254-0.155,0.37c-0.56,0.531-1.097,1.084-1.642,1.629   c-0.115,0.117-0.168,0.261-0.154,0.423c0.021,0.233,0.143,0.399,0.363,0.478c0.219,0.08,0.419,0.027,0.584-0.136   c0.307-0.3,0.607-0.604,0.91-0.907c0.023-0.023,0.051-0.043,0.091-0.076c0,0.701-0.001,1.379,0,2.056   c0.001,0.319,0.246,0.566,0.554,0.563c0.307-0.003,0.543-0.245,0.544-0.559c0.001-0.604,0.001-1.208,0.001-1.812   c0-0.052,0-0.104,0-0.19c0.057,0.054,0.089,0.083,0.12,0.114c0.265,0.266,0.53,0.532,0.796,0.797   c0.24,0.238,0.574,0.248,0.799,0.027c0.23-0.229,0.225-0.561-0.018-0.807c-0.129-0.131-0.26-0.26-0.389-0.389   c-0.396-0.396-0.786-0.797-1.189-1.182c-0.098-0.094-0.123-0.182-0.122-0.305c0.005-0.804,0.003-1.607,0.003-2.411   c0-0.044,0-0.086,0-0.135c0.025,0.005,0.039,0.004,0.048,0.009c0.767,0.441,1.534,0.883,2.298,1.328   c0.031,0.018,0.053,0.066,0.063,0.104c0.207,0.76,0.406,1.52,0.613,2.277c0.07,0.255,0.332,0.42,0.584,0.387   c0.287-0.038,0.49-0.252,0.488-0.535c0-0.115-0.035-0.232-0.064-0.346c-0.092-0.354-0.189-0.705-0.291-1.082   c0.057,0.029,0.092,0.046,0.125,0.066c0.52,0.299,1.039,0.597,1.558,0.898c0.151,0.088,0.308,0.131,0.479,0.088   c0.217-0.055,0.375-0.238,0.406-0.47c0.03-0.211-0.078-0.425-0.281-0.542c-0.551-0.319-1.102-0.637-1.652-0.955   c-0.039-0.021-0.076-0.049-0.131-0.084c0.457-0.123,0.885-0.238,1.313-0.354c0.344-0.093,0.521-0.37,0.439-0.687   c-0.08-0.308-0.382-0.463-0.727-0.372c-0.449,0.118-0.897,0.236-1.347,0.358c-0.324,0.09-0.646,0.188-0.973,0.278   c-0.031,0.009-0.078-0.007-0.109-0.024c-0.743-0.426-1.484-0.854-2.227-1.281c-0.021-0.013-0.039-0.032-0.059-0.049   c0.01-0.012,0.012-0.016,0.014-0.018c0.787-0.455,1.574-0.91,2.363-1.363c0.025-0.016,0.068-0.017,0.1-0.008   c0.759,0.201,1.518,0.409,2.277,0.609c0.309,0.081,0.604-0.091,0.682-0.381c0.082-0.302-0.089-0.593-0.401-0.682   c-0.192-0.055-0.386-0.104-0.578-0.155c-0.22-0.059-0.44-0.118-0.685-0.185c0.057-0.035,0.086-0.055,0.117-0.072   C52.244,57.411,52.77,57.109,53.295,56.804z"/><path fill-rule="evenodd" clip-rule="evenodd" d="M59.652,47.859c-0.027-0.016-0.052-0.033-0.088-0.057   c0.305-0.082,0.592-0.16,0.877-0.236c0.23-0.063,0.349-0.248,0.294-0.459c-0.054-0.206-0.255-0.311-0.485-0.249   c-0.301,0.079-0.6,0.157-0.9,0.239c-0.217,0.061-0.432,0.126-0.649,0.186c-0.022,0.006-0.053-0.004-0.073-0.016   c-0.497-0.285-0.992-0.57-1.488-0.857c-0.015-0.008-0.026-0.021-0.039-0.031c0.006-0.008,0.008-0.011,0.01-0.012   c0.525-0.305,1.052-0.609,1.578-0.912c0.018-0.01,0.047-0.01,0.066-0.005c0.508,0.136,1.015,0.274,1.523,0.407   c0.205,0.055,0.402-0.061,0.455-0.254c0.055-0.202-0.06-0.396-0.269-0.456c-0.128-0.036-0.257-0.069-0.386-0.104   c-0.148-0.039-0.295-0.079-0.458-0.124c0.038-0.022,0.058-0.035,0.078-0.048c0.353-0.202,0.704-0.404,1.056-0.608   c0.205-0.119,0.269-0.332,0.16-0.521c-0.105-0.182-0.328-0.23-0.528-0.115c-0.257,0.146-0.515,0.295-0.772,0.443   c-0.129,0.075-0.258,0.148-0.398,0.23c0.006-0.033,0.007-0.052,0.012-0.068c0.074-0.281,0.151-0.563,0.225-0.844   c0.04-0.153-0.016-0.306-0.137-0.393c-0.211-0.15-0.5-0.055-0.57,0.198c-0.104,0.364-0.198,0.729-0.296,1.095   c-0.039,0.145-0.086,0.289-0.11,0.436c-0.012,0.068-0.035,0.104-0.091,0.136c-0.358,0.203-0.714,0.41-1.07,0.615   c-0.147,0.085-0.296,0.169-0.449,0.257c-0.005-0.021-0.009-0.031-0.009-0.042c0-0.604,0-1.21,0.002-1.815   c0-0.024,0.013-0.054,0.029-0.07c0.366-0.367,0.734-0.731,1.101-1.098c0.161-0.161,0.167-0.389,0.019-0.54   c-0.146-0.147-0.382-0.139-0.541,0.021c-0.178,0.177-0.354,0.354-0.531,0.531c-0.02,0.02-0.043,0.037-0.078,0.068   c0-0.084,0-0.146,0-0.209c0-0.373,0.001-0.746,0-1.121c-0.002-0.227-0.168-0.382-0.395-0.372c-0.196,0.008-0.342,0.173-0.342,0.396   c-0.002,0.416-0.002,0.834-0.002,1.252c0,0.026,0,0.055,0,0.102c-0.039-0.037-0.061-0.057-0.082-0.078   c-0.191-0.192-0.385-0.385-0.578-0.578c-0.105-0.105-0.232-0.141-0.374-0.1c-0.265,0.073-0.354,0.402-0.163,0.603   c0.152,0.159,0.311,0.313,0.468,0.47c0.212,0.211,0.42,0.428,0.642,0.631c0.072,0.068,0.091,0.133,0.09,0.223   c-0.002,0.549-0.002,1.097-0.002,1.645c0,0.028,0,0.057,0,0.098c-0.041-0.021-0.066-0.035-0.092-0.05   c-0.484-0.278-0.968-0.559-1.453-0.835c-0.059-0.035-0.088-0.071-0.106-0.145c-0.132-0.518-0.271-1.032-0.415-1.545   c-0.02-0.07-0.077-0.141-0.135-0.187c-0.126-0.1-0.298-0.093-0.428-0.001c-0.127,0.09-0.18,0.246-0.135,0.414   c0.072,0.269,0.145,0.536,0.217,0.805c0.006,0.023,0.01,0.049,0.018,0.086c-0.041-0.021-0.066-0.036-0.092-0.051   c-0.367-0.211-0.732-0.422-1.099-0.633c-0.175-0.1-0.383-0.057-0.494,0.103c-0.124,0.179-0.073,0.415,0.12,0.53   c0.234,0.139,0.473,0.273,0.708,0.409c0.146,0.084,0.29,0.169,0.448,0.26c-0.035,0.012-0.055,0.019-0.075,0.024   c-0.253,0.068-0.505,0.135-0.757,0.205c-0.215,0.059-0.332,0.248-0.279,0.445c0.057,0.213,0.246,0.321,0.469,0.262   c0.492-0.129,0.984-0.26,1.476-0.395c0.052-0.014,0.091-0.013,0.138,0.014c0.364,0.213,0.73,0.424,1.097,0.635   c0.161,0.093,0.323,0.186,0.493,0.285c-0.027,0.018-0.044,0.029-0.063,0.04c-0.469,0.271-0.939,0.54-1.408,0.813   c-0.076,0.044-0.135,0.059-0.229,0.03c-0.505-0.147-1.013-0.279-1.522-0.408c-0.066-0.018-0.152-0.005-0.221,0.021   c-0.148,0.051-0.229,0.191-0.224,0.354c0.005,0.149,0.101,0.282,0.253,0.328c0.18,0.055,0.361,0.1,0.543,0.148   c0.125,0.033,0.249,0.066,0.389,0.104c-0.037,0.024-0.061,0.039-0.083,0.052c-0.364,0.211-0.728,0.42-1.091,0.629   c-0.203,0.117-0.268,0.332-0.158,0.522c0.104,0.178,0.327,0.229,0.521,0.118c0.354-0.203,0.709-0.408,1.063-0.611   c0.02-0.012,0.041-0.021,0.076-0.039c-0.012,0.053-0.02,0.09-0.028,0.125c-0.063,0.242-0.132,0.483-0.194,0.727   c-0.05,0.199,0.064,0.39,0.26,0.444c0.191,0.054,0.391-0.058,0.449-0.255c0.027-0.088,0.05-0.178,0.074-0.268   c0.106-0.398,0.217-0.797,0.316-1.199c0.021-0.08,0.059-0.121,0.127-0.16c0.426-0.242,0.851-0.488,1.275-0.732   c0.084-0.049,0.168-0.098,0.266-0.154c0,0.045,0,0.074,0,0.103c0,0.521-0.002,1.042,0.002,1.563c0,0.103-0.021,0.169-0.104,0.247   c-0.373,0.355-0.733,0.725-1.098,1.09c-0.076,0.077-0.111,0.174-0.102,0.281c0.013,0.156,0.095,0.268,0.242,0.319   c0.146,0.054,0.279,0.019,0.391-0.091c0.203-0.2,0.404-0.404,0.607-0.605c0.016-0.016,0.033-0.029,0.061-0.052   c0,0.469,0,0.922,0,1.374c0.001,0.213,0.164,0.379,0.37,0.376c0.205-0.003,0.363-0.164,0.364-0.374c0-0.402,0-0.807,0-1.211   c0-0.033,0-0.068,0-0.127c0.037,0.037,0.06,0.057,0.08,0.077c0.178,0.178,0.354,0.355,0.532,0.532   c0.161,0.16,0.384,0.166,0.534,0.018c0.154-0.152,0.149-0.373-0.012-0.538c-0.086-0.087-0.174-0.173-0.26-0.261   c-0.266-0.264-0.525-0.531-0.795-0.789c-0.065-0.063-0.082-0.121-0.082-0.203c0.004-0.537,0.002-1.074,0.002-1.611   c0-0.029,0-0.059,0-0.09c0.018,0.002,0.025,0.002,0.032,0.006c0.513,0.295,1.024,0.589,1.536,0.887   c0.021,0.012,0.035,0.045,0.041,0.07c0.139,0.506,0.271,1.015,0.41,1.521c0.047,0.17,0.223,0.279,0.391,0.258   c0.191-0.025,0.328-0.168,0.326-0.357c0-0.077-0.023-0.155-0.043-0.23c-0.062-0.237-0.127-0.473-0.194-0.724   c0.038,0.021,0.062,0.03,0.083,0.044c0.348,0.2,0.695,0.399,1.041,0.602c0.102,0.059,0.205,0.086,0.32,0.059   c0.146-0.037,0.25-0.16,0.271-0.314c0.021-0.141-0.052-0.283-0.188-0.363C60.388,48.283,60.02,48.072,59.652,47.859z"/><path fill-rule="evenodd" clip-rule="evenodd" d="M40.161,49.424c0-0.077-0.023-0.155-0.044-0.23   c-0.061-0.237-0.125-0.473-0.193-0.724c0.037,0.021,0.061,0.03,0.084,0.044c0.347,0.2,0.693,0.399,1.04,0.602   c0.101,0.059,0.206,0.086,0.32,0.059c0.146-0.037,0.251-0.16,0.272-0.314c0.02-0.141-0.053-0.283-0.189-0.363   c-0.367-0.213-0.735-0.424-1.104-0.637c-0.025-0.016-0.051-0.033-0.088-0.057c0.306-0.082,0.592-0.16,0.879-0.236   c0.229-0.063,0.348-0.248,0.293-0.459c-0.053-0.206-0.255-0.311-0.485-0.249c-0.3,0.079-0.601,0.157-0.899,0.239   c-0.217,0.061-0.434,0.126-0.65,0.186c-0.021,0.006-0.053-0.004-0.074-0.016c-0.496-0.285-0.992-0.57-1.487-0.857   c-0.015-0.008-0.026-0.021-0.039-0.031c0.006-0.008,0.007-0.011,0.009-0.012c0.526-0.305,1.053-0.609,1.579-0.912   c0.018-0.01,0.046-0.01,0.067-0.005c0.507,0.136,1.014,0.274,1.521,0.407c0.207,0.055,0.404-0.061,0.455-0.254   c0.055-0.202-0.059-0.396-0.268-0.456c-0.129-0.036-0.258-0.069-0.387-0.104c-0.146-0.039-0.294-0.079-0.457-0.124   c0.037-0.022,0.058-0.035,0.078-0.048c0.352-0.202,0.704-0.404,1.055-0.608c0.205-0.119,0.27-0.332,0.16-0.521   c-0.104-0.182-0.328-0.23-0.527-0.115c-0.258,0.146-0.514,0.295-0.771,0.443c-0.129,0.075-0.259,0.148-0.399,0.23   c0.005-0.033,0.007-0.052,0.012-0.068c0.075-0.281,0.151-0.563,0.225-0.844c0.04-0.153-0.016-0.306-0.137-0.393   c-0.212-0.15-0.499-0.055-0.571,0.198c-0.102,0.364-0.197,0.729-0.295,1.095c-0.039,0.145-0.086,0.289-0.11,0.436   c-0.011,0.068-0.034,0.104-0.091,0.136c-0.357,0.203-0.714,0.41-1.07,0.615c-0.147,0.085-0.295,0.169-0.449,0.257   c-0.004-0.021-0.008-0.031-0.008-0.042c0-0.604,0-1.21,0-1.815c0-0.024,0.014-0.054,0.03-0.07c0.366-0.367,0.733-0.731,1.101-1.098   c0.16-0.161,0.168-0.389,0.019-0.54c-0.146-0.147-0.382-0.139-0.541,0.021c-0.177,0.177-0.354,0.354-0.532,0.531   c-0.02,0.02-0.041,0.037-0.078,0.068c0-0.084,0-0.146,0-0.209c0-0.373,0.002-0.746,0-1.121c0-0.227-0.166-0.382-0.394-0.372   c-0.196,0.008-0.342,0.173-0.343,0.396c-0.002,0.416,0,0.834,0,1.252c0,0.026,0,0.055,0,0.102   c-0.039-0.037-0.062-0.057-0.082-0.078c-0.193-0.192-0.387-0.385-0.578-0.578c-0.105-0.105-0.234-0.141-0.375-0.1   c-0.266,0.073-0.354,0.402-0.163,0.603c0.153,0.159,0.312,0.313,0.468,0.47c0.213,0.211,0.42,0.428,0.641,0.631   c0.074,0.068,0.092,0.133,0.092,0.223c-0.004,0.549-0.002,1.097-0.002,1.645c0,0.028,0,0.057,0,0.098   c-0.041-0.021-0.068-0.035-0.094-0.05c-0.483-0.278-0.967-0.559-1.451-0.835c-0.061-0.035-0.09-0.071-0.107-0.145   c-0.131-0.518-0.27-1.032-0.415-1.545c-0.021-0.07-0.077-0.141-0.136-0.187c-0.125-0.1-0.297-0.093-0.427-0.001   c-0.128,0.09-0.179,0.246-0.134,0.414c0.07,0.269,0.145,0.536,0.216,0.805c0.007,0.023,0.01,0.049,0.018,0.086   c-0.04-0.021-0.067-0.036-0.093-0.051c-0.365-0.211-0.73-0.422-1.098-0.633c-0.176-0.1-0.383-0.057-0.494,0.103   c-0.125,0.179-0.074,0.415,0.121,0.53c0.233,0.139,0.471,0.273,0.707,0.409c0.146,0.084,0.291,0.169,0.449,0.26   c-0.035,0.012-0.055,0.019-0.076,0.024c-0.252,0.068-0.504,0.135-0.757,0.205c-0.214,0.059-0.331,0.248-0.279,0.445   c0.057,0.213,0.245,0.321,0.47,0.262c0.492-0.129,0.984-0.26,1.475-0.395c0.051-0.014,0.09-0.013,0.137,0.014   c0.365,0.213,0.731,0.424,1.098,0.635c0.162,0.093,0.323,0.186,0.494,0.285c-0.027,0.018-0.045,0.029-0.063,0.04   c-0.471,0.271-0.941,0.54-1.409,0.813c-0.075,0.044-0.134,0.059-0.229,0.03c-0.504-0.147-1.013-0.279-1.521-0.408   c-0.068-0.018-0.154-0.005-0.222,0.021c-0.147,0.051-0.229,0.191-0.224,0.354c0.006,0.149,0.102,0.282,0.252,0.328   c0.18,0.055,0.363,0.1,0.545,0.148c0.123,0.033,0.248,0.066,0.388,0.104c-0.038,0.024-0.06,0.039-0.083,0.052   c-0.363,0.211-0.727,0.42-1.09,0.629c-0.203,0.117-0.27,0.332-0.158,0.522c0.103,0.178,0.326,0.229,0.52,0.118   c0.355-0.203,0.709-0.408,1.063-0.611c0.019-0.012,0.04-0.021,0.077-0.039c-0.013,0.053-0.02,0.09-0.029,0.125   c-0.064,0.242-0.133,0.483-0.193,0.727c-0.051,0.199,0.063,0.39,0.259,0.444c0.192,0.054,0.39-0.058,0.45-0.255   c0.025-0.088,0.049-0.178,0.072-0.268c0.107-0.398,0.218-0.797,0.318-1.199c0.02-0.08,0.059-0.121,0.125-0.16   c0.427-0.242,0.852-0.488,1.275-0.732c0.085-0.049,0.169-0.098,0.268-0.154c0,0.045,0,0.074,0,0.103   c0,0.521-0.003,1.042,0.002,1.563c0,0.103-0.023,0.169-0.104,0.247c-0.374,0.355-0.733,0.725-1.097,1.09   c-0.078,0.077-0.113,0.174-0.104,0.281c0.014,0.156,0.096,0.268,0.242,0.319c0.146,0.054,0.281,0.019,0.391-0.091   c0.205-0.2,0.406-0.404,0.609-0.605c0.016-0.016,0.033-0.029,0.061-0.052c0,0.469-0.001,0.922,0,1.374   c0,0.213,0.164,0.379,0.369,0.376s0.363-0.164,0.363-0.374c0.001-0.402,0.001-0.807,0.001-1.211c0-0.033,0-0.068,0-0.127   c0.038,0.037,0.06,0.057,0.081,0.077c0.177,0.178,0.354,0.355,0.531,0.532c0.16,0.16,0.385,0.166,0.533,0.018   c0.154-0.152,0.15-0.373-0.011-0.538c-0.087-0.087-0.174-0.173-0.261-0.261c-0.264-0.264-0.525-0.531-0.795-0.789   c-0.064-0.063-0.081-0.121-0.081-0.203c0.003-0.537,0.002-1.074,0.002-1.611c0-0.029,0-0.059,0-0.09   c0.018,0.002,0.026,0.002,0.032,0.006c0.513,0.295,1.025,0.589,1.536,0.887c0.021,0.012,0.035,0.045,0.042,0.07   c0.137,0.506,0.271,1.015,0.41,1.521c0.047,0.17,0.221,0.279,0.389,0.258C40.025,49.756,40.162,49.613,40.161,49.424z"/><path fill-rule="evenodd" clip-rule="evenodd" d="M44.037,34.646c0.101,0.059,0.2,0.116,0.309,0.179   c-0.023,0.009-0.037,0.013-0.052,0.017c-0.174,0.047-0.347,0.094-0.521,0.141c-0.148,0.041-0.229,0.172-0.193,0.307   c0.039,0.147,0.17,0.222,0.324,0.182c0.338-0.09,0.678-0.18,1.015-0.272c0.036-0.01,0.062-0.009,0.095,0.01   c0.251,0.146,0.503,0.291,0.755,0.437c0.111,0.064,0.223,0.129,0.34,0.196c-0.019,0.012-0.03,0.021-0.043,0.028   c-0.323,0.186-0.647,0.371-0.97,0.559c-0.053,0.031-0.092,0.041-0.158,0.021c-0.347-0.102-0.697-0.192-1.047-0.281   c-0.047-0.012-0.105-0.002-0.152,0.014c-0.102,0.036-0.158,0.133-0.154,0.244c0.004,0.104,0.07,0.194,0.174,0.226   c0.123,0.038,0.25,0.068,0.375,0.103c0.085,0.023,0.17,0.046,0.267,0.072c-0.026,0.016-0.042,0.026-0.058,0.035   c-0.25,0.145-0.5,0.289-0.75,0.433c-0.14,0.081-0.186,0.229-0.109,0.36c0.071,0.121,0.225,0.158,0.358,0.081   c0.245-0.14,0.487-0.28,0.731-0.421c0.014-0.008,0.028-0.015,0.053-0.027c-0.008,0.037-0.013,0.063-0.02,0.087   c-0.043,0.166-0.091,0.332-0.133,0.499c-0.035,0.138,0.043,0.269,0.178,0.307c0.133,0.037,0.27-0.04,0.311-0.176   c0.018-0.061,0.033-0.122,0.05-0.184c0.073-0.275,0.149-0.549,0.218-0.826c0.015-0.055,0.041-0.084,0.088-0.109   c0.293-0.168,0.586-0.336,0.877-0.505c0.059-0.034,0.116-0.067,0.184-0.105c0,0.03,0,0.05,0,0.069c0,0.359-0.002,0.717,0.002,1.076   c0,0.07-0.016,0.117-0.072,0.17c-0.257,0.244-0.504,0.498-0.755,0.75c-0.054,0.053-0.077,0.119-0.07,0.194   c0.009,0.106,0.065,0.183,0.167,0.22c0.1,0.037,0.192,0.012,0.269-0.063c0.14-0.139,0.278-0.278,0.419-0.418   c0.01-0.01,0.022-0.02,0.041-0.035c0,0.322,0,0.635,0,0.945c0,0.147,0.113,0.262,0.255,0.26s0.25-0.113,0.251-0.258   c0-0.277,0-0.555,0-0.833c0-0.023,0-0.048,0-0.087c0.025,0.024,0.041,0.037,0.055,0.053c0.123,0.122,0.244,0.244,0.366,0.365   c0.11,0.11,0.265,0.115,0.368,0.014c0.105-0.105,0.103-0.258-0.008-0.371c-0.061-0.061-0.12-0.119-0.18-0.18   c-0.182-0.182-0.361-0.365-0.547-0.543c-0.045-0.043-0.057-0.084-0.057-0.141c0.002-0.369,0.002-0.739,0.002-1.109   c0-0.02,0-0.039,0-0.061c0.012,0.002,0.018,0.001,0.021,0.004c0.354,0.203,0.705,0.405,1.058,0.61   c0.015,0.008,0.024,0.03,0.028,0.048c0.096,0.349,0.188,0.699,0.283,1.047c0.031,0.117,0.152,0.193,0.268,0.178   c0.132-0.017,0.226-0.115,0.225-0.245c0-0.054-0.016-0.107-0.029-0.159c-0.043-0.163-0.088-0.324-0.134-0.498   c0.026,0.014,0.042,0.021,0.058,0.03c0.238,0.138,0.478,0.274,0.716,0.413c0.069,0.041,0.142,0.061,0.221,0.041   c0.101-0.025,0.173-0.109,0.187-0.217c0.014-0.097-0.035-0.195-0.129-0.249c-0.254-0.146-0.507-0.292-0.76-0.438   c-0.018-0.011-0.035-0.023-0.061-0.039c0.21-0.057,0.407-0.109,0.604-0.163c0.157-0.042,0.239-0.171,0.202-0.315   c-0.037-0.143-0.176-0.213-0.334-0.172c-0.207,0.055-0.414,0.109-0.619,0.166c-0.15,0.041-0.299,0.086-0.447,0.127   c-0.016,0.004-0.037-0.002-0.051-0.012c-0.342-0.195-0.684-0.392-1.025-0.589c-0.01-0.005-0.018-0.015-0.026-0.022   c0.005-0.005,0.005-0.007,0.007-0.008c0.361-0.209,0.725-0.419,1.086-0.627c0.012-0.008,0.032-0.008,0.047-0.004   c0.349,0.093,0.697,0.188,1.047,0.28c0.143,0.038,0.277-0.042,0.314-0.175c0.037-0.139-0.041-0.273-0.186-0.314   c-0.088-0.025-0.177-0.047-0.266-0.07c-0.102-0.027-0.203-0.055-0.314-0.086c0.025-0.016,0.039-0.024,0.053-0.033   c0.243-0.139,0.485-0.277,0.727-0.419c0.142-0.081,0.186-0.229,0.111-0.358c-0.072-0.125-0.227-0.159-0.363-0.08   c-0.178,0.102-0.354,0.204-0.532,0.307c-0.089,0.051-0.178,0.102-0.274,0.158c0.004-0.023,0.004-0.036,0.008-0.048   c0.052-0.193,0.104-0.387,0.154-0.581c0.027-0.104-0.01-0.209-0.094-0.27c-0.146-0.104-0.344-0.037-0.393,0.137   c-0.07,0.25-0.137,0.502-0.203,0.754c-0.027,0.1-0.06,0.198-0.076,0.299c-0.008,0.047-0.023,0.072-0.063,0.094   c-0.246,0.141-0.492,0.282-0.736,0.424c-0.102,0.059-0.203,0.116-0.31,0.177c-0.003-0.015-0.006-0.022-0.006-0.029   c0-0.416,0-0.833,0.001-1.249c0-0.018,0.009-0.037,0.02-0.049c0.253-0.252,0.506-0.504,0.758-0.755   c0.111-0.111,0.115-0.269,0.014-0.372c-0.102-0.102-0.264-0.096-0.373,0.014c-0.121,0.122-0.244,0.244-0.365,0.366   c-0.014,0.014-0.029,0.024-0.055,0.046c0-0.057,0-0.1,0-0.143c0-0.258,0.002-0.514,0-0.771c0-0.156-0.115-0.264-0.271-0.257   c-0.135,0.005-0.234,0.119-0.234,0.272c-0.002,0.287-0.002,0.574-0.002,0.861c0,0.019,0,0.037,0,0.07   c-0.026-0.025-0.041-0.039-0.056-0.054c-0.132-0.133-0.266-0.265-0.397-0.397c-0.073-0.074-0.161-0.098-0.258-0.069   c-0.184,0.051-0.244,0.276-0.113,0.415c0.105,0.109,0.215,0.216,0.322,0.322c0.146,0.146,0.289,0.295,0.441,0.436   c0.051,0.047,0.063,0.091,0.063,0.152c-0.002,0.378-0.002,0.756-0.002,1.133c0,0.02,0,0.039,0,0.066   c-0.027-0.015-0.046-0.023-0.063-0.033c-0.334-0.192-0.666-0.385-1-0.576c-0.041-0.023-0.062-0.049-0.074-0.099   c-0.09-0.356-0.186-0.71-0.285-1.063c-0.014-0.048-0.053-0.096-0.094-0.129c-0.086-0.068-0.204-0.063-0.293,0   c-0.088,0.062-0.124,0.169-0.093,0.285c0.049,0.185,0.099,0.369,0.149,0.554c0.004,0.017,0.006,0.033,0.012,0.06   c-0.028-0.016-0.047-0.025-0.064-0.035c-0.252-0.145-0.503-0.291-0.756-0.436c-0.12-0.069-0.263-0.039-0.34,0.07   c-0.086,0.123-0.051,0.286,0.084,0.365C43.711,34.461,43.875,34.553,44.037,34.646z"/></g></svg>