<svg xmlns="http://www.w3.org/2000/svg" version="1.1" viewBox="-5.0 -10.0 110.0 135.0">
 <g fill-rule="evenodd">
  <path d="m35.992 60.812c-4.8555 0-9.5039-2.0312-12.816-5.5195 2.1445-1.7031 4.8398-6.1367 2.1172-10.859-0.76953-1.3359-2.8008-0.16406-2.0273 1.1719 1.6641 2.8867 0.67969 6.5703-2.207 8.2344-0.12891 0.074218-0.23438 0.16406-0.32031 0.26562-9.4062-0.32812-17.027-8.082-17.027-17.645 0-9.7344 7.8945-17.547 17.43-17.652 4.3438 1.2305 6.8945 5.7148 5.7266 10.086-0.19922 0.74609 0.36328 1.4766 1.1328 1.4766 0.51562 0 0.98828-0.34375 1.1289-0.87109 1.3789-5.1641-1.2773-10.438-6.043-12.484 3.3555-13.789 21.363-18.016 30.523-7.207-4.3711 2.2227-6.7539 7.2773-5.4336 12.195 0.14062 0.52344 0.61328 0.86719 1.1289 0.86719 0.76953 0 1.332-0.73047 1.1328-1.4727-1.1797-4.3984 1.4414-8.9375 5.8398-10.117 6.9375-1.0664 13.867 2.0938 17.609 8.0156-4.9102 1.957-7.6953 7.3359-6.2891 12.59 0.14062 0.52344 0.61328 0.86719 1.1328 0.86719 0.76953 0 1.332-0.73047 1.1328-1.4727-1.1797-4.4102 1.4297-8.9375 5.8398-10.117 8.1992 1.6133 14.207 8.8047 14.207 17.316 0 11.082-10.059 19.242-20.66 17.398 0.77734-2.7383-0.050781-7.8711-4.8125-9.9219-1.4141-0.60938-2.3398 1.543-0.92969 2.1523 3.0586 1.3203 4.4648 4.8633 3.1445 7.9219-0.042969 0.10156-0.070313 0.20312-0.085938 0.30859-5.3516 3.9453-12.477 4.5352-18.383 1.5664-0.015625-0.089844-0.042969-0.17578-0.078125-0.26562-1.3203-3.0586 0.085937-6.6016 3.1445-7.9219 1.4102-0.60938 0.48438-2.7578-0.92969-2.1523-5.0273 2.1641-5.668 7.7734-4.6641 10.363-2.8594 1.8711-6.2188 2.8828-9.6641 2.8828z"/>
  <path d="m17.16 72.074c-6.5508 0-6.5508-9.9531 0-9.9531 6.5508 0 6.5508 9.9531 0 9.9531z"/>
  <path d="m31.949 81.773c-6.5508 0-6.5508-9.9531 0-9.9531s6.5508 9.9531 0 9.9531z"/>
  <path d="m49.363 67.066c-3.4648 0-3.4648 5.2656 0 5.2656 3.4648 0 3.4648-5.2656 0-5.2656z"/>
  <path d="m76.461 72.074c-6.5508 0-6.5508-9.9531 0-9.9531 6.5508 0 6.5508 9.9531 0 9.9531z"/>
  <path d="m65.109 81.773c-6.5508 0-6.5508-9.9531 0-9.9531s6.5508 9.9531 0 9.9531z"/>
  <path d="m49.098 96.336c-0.64844 0-1.1719-0.52734-1.1719-1.1719v-14.508c0-1.543 2.3438-1.543 2.3438 0v14.508c0 0.64844-0.52344 1.1719-1.1719 1.1719z"/>
  <path d="m49.098 84.832c-0.86719 0-2.7695-2.2852-3.832-3.3477-1.0938-1.0938 0.56641-2.7461 1.6562-1.6562l2.1758 2.1758c1.4141-1.4141 2.7031-3.3125 3.832-2.1758 0.45703 0.45703 0.45703 1.1992 0 1.6562-1.0664 1.0664-2.9688 3.3477-3.832 3.3477z"/>
  <path d="m52.102 96.336c-0.8125 0-2.0742-1.5898-3.0039-2.5195-1.4141 1.4141-2.7031 3.3086-3.832 2.1758-0.45703-0.45703-0.45703-1.1992 0-1.6562 4.4414-4.4375 3.2266-4.4414 7.668 0 0.74219 0.74219 0.20703 2-0.82812 2z"/>
  <path d="m56.352 89.082h-14.508c-1.543 0-1.543-2.3438 0-2.3438h14.508c1.543 0 1.543 2.3438 0 2.3438z"/>
  <path d="m56.352 92.086c-0.86328 0-2.7773-2.2891-3.8359-3.3477-0.45703-0.45703-0.45703-1.1992 0-1.6562l3.0039-3.0039c1.0938-1.0938 2.7461 0.56641 1.6562 1.6562l-2.1797 2.1758c1.4141 1.4141 3.3086 2.7031 2.1797 3.832-0.23047 0.23047-0.52734 0.34375-0.82812 0.34375z"/>
  <path d="m41.844 92.086c-1.0312 0-1.5703-1.2617-0.82812-2l2.1758-2.1758c-1.4141-1.4141-3.3086-2.7031-2.1758-3.8359 0.45703-0.45703 1.1992-0.45703 1.6562 0 4.4453 4.4531 4.4453 3.2188 0 7.668-0.23047 0.23047-0.52734 0.34375-0.82812 0.34375z"/>
  <path d="m91.555 70.188c-0.64844 0-1.1719-0.52734-1.1719-1.1719v-14.508c0-1.543 2.3438-1.543 2.3438 0v14.508c0 0.64844-0.52344 1.1719-1.1719 1.1719z"/>
  <path d="m91.555 58.684c-0.86719 0-2.7695-2.2852-3.8359-3.3477-1.0938-1.0938 0.56641-2.7461 1.6562-1.6562l2.1758 2.1797c1.4141-1.4141 2.7031-3.3125 3.8359-2.1797 0.45703 0.45703 0.45703 1.1992 0 1.6562-1.0664 1.0664-2.9688 3.3477-3.8359 3.3477z"/>
  <path d="m94.562 70.188c-0.8125 0-2.0742-1.5898-3.0039-2.5195-1.4141 1.4141-2.7031 3.3125-3.8359 2.1797-0.45703-0.45703-0.45703-1.1992 0-1.6562 4.4492-4.4414 3.2188-4.4492 7.668 0 0.74219 0.74219 0.20312 2-0.82812 2z"/>
  <path d="m98.812 62.934h-14.508c-1.543 0-1.543-2.3438 0-2.3438h14.508c1.543 0 1.543 2.3438 0 2.3438z"/>
  <path d="m98.812 65.938c-0.86719 0-2.7695-2.2852-3.8359-3.3477-0.45703-0.45703-0.45703-1.1992 0-1.6562l3.0039-3.0039c1.0938-1.0938 2.7461 0.56641 1.6562 1.6562l-2.1797 2.1758c1.4141 1.4141 3.3125 2.7031 2.1797 3.8359-0.23047 0.22656-0.52734 0.34375-0.82812 0.34375z"/>
  <path d="m84.301 65.938c-1.0352 0-1.5703-1.2617-0.82812-2l2.1797-2.1758c-1.4141-1.4141-3.3125-2.7031-2.1797-3.8359 0.45703-0.45703 1.1992-0.45703 1.6562 0 4.4453 4.4531 4.4453 3.2188 0 7.668-0.23047 0.23047-0.52734 0.34375-0.82812 0.34375z"/>
  <path d="m77.879 95.379c-0.64844 0-1.1719-0.52734-1.1719-1.1719v-14.508c0-1.543 2.3438-1.543 2.3438 0v14.508c0 0.64844-0.52734 1.1719-1.1719 1.1719z"/>
  <path d="m77.879 83.875c-0.86719 0-2.7695-2.2852-3.832-3.3477-1.0898-1.0898 0.56641-2.75 1.6562-1.6562l2.1758 2.1758c1.4141-1.4141 2.7031-3.3125 3.8359-2.1758 0.45703 0.45703 0.45703 1.1992 0 1.6562-1.0664 1.0664-2.9688 3.3477-3.8359 3.3477z"/>
  <path d="m74.875 95.379c-1.0352 0-1.5703-1.2617-0.82812-2 4.4453-4.4414 3.2188-4.4492 7.668 0 1.0938 1.0938-0.56641 2.7461-1.6562 1.6562l-2.1758-2.1797c-0.93359 0.93359-2.1914 2.5195-3.0039 2.5195z"/>
  <path d="m85.133 88.125h-14.508c-1.543 0-1.543-2.3438 0-2.3438h14.508c1.543 0 1.543 2.3438 0 2.3438z"/>
  <path d="m85.133 91.129c-0.86719 0-2.7695-2.2852-3.8359-3.3477-0.45703-0.45703-0.45703-1.1992 0-1.6562l3.0039-3.0039c1.0938-1.0938 2.7461 0.56641 1.6562 1.6562l-2.1797 2.1758c1.4141 1.4141 3.3125 2.7031 2.1797 3.8359-0.23047 0.22656-0.52734 0.34375-0.82812 0.34375z"/>
  <path d="m70.625 91.129c-1.0352 0-1.5703-1.2617-0.82812-2l2.1797-2.1758c-1.4141-1.4141-3.3125-2.7031-2.1797-3.8359 0.45703-0.45703 1.1992-0.45703 1.6562 0 4.4453 4.4531 4.4453 3.2188 0 7.668-0.23047 0.23047-0.52734 0.34375-0.82812 0.34375z"/>
  <path d="m17.648 94.285c-0.64844 0-1.1719-0.52734-1.1719-1.1719v-14.508c0-1.543 2.3438-1.543 2.3438 0v14.508c0 0.64453-0.52344 1.1719-1.1719 1.1719z"/>
  <path d="m17.648 82.781c-0.86719 0-2.7695-2.2852-3.832-3.3477-1.0938-1.0938 0.56641-2.7461 1.6562-1.6562l2.1758 2.1797c1.4141-1.4141 2.7031-3.3086 3.832-2.1797 0.45703 0.45703 0.45703 1.1992 0 1.6562-1.0664 1.0664-2.9688 3.3477-3.832 3.3477z"/>
  <path d="m14.645 94.285c-1.0312 0-1.5703-1.2617-0.82812-2 4.4336-4.4297 3.2305-4.4375 7.668 0 1.0938 1.0938-0.56641 2.7461-1.6562 1.6562l-2.1758-2.1797c-0.93359 0.93359-2.1914 2.5195-3.0039 2.5195z"/>
  <path d="m24.902 87.031h-14.508c-1.543 0-1.543-2.3438 0-2.3438h14.508c1.543 0 1.543 2.3438 0 2.3438z"/>
  <path d="m24.902 90.035c-0.86328 0-2.7695-2.2852-3.832-3.3477-0.45703-0.45703-0.45703-1.1992 0-1.6562l3.0039-3.0039c1.0898-1.0938 2.7461 0.56641 1.6562 1.6562l-2.1758 2.1758c1.4141 1.4141 3.3086 2.7031 2.1758 3.8359-0.23047 0.22656-0.52734 0.34375-0.82812 0.34375z"/>
  <path d="m10.395 90.035c-1.0312 0-1.5703-1.2617-0.82812-2l2.1758-2.1758c-1.4141-1.4141-3.3086-2.7031-2.1758-3.8359 0.45703-0.45703 1.1992-0.45703 1.6562 0 4.4453 4.4531 4.4453 3.2188 0 7.668-0.23047 0.23047-0.52734 0.34375-0.82812 0.34375z"/>
  <path d="m4.4766 66.219c-0.64844 0-1.1719-0.52734-1.1719-1.1719v-6.5703c0-1.543 2.3438-1.543 2.3438 0v6.5703c0 0.64453-0.52344 1.1719-1.1719 1.1719z"/>
  <path d="m7.7617 62.934h-6.5742c-1.543 0-1.543-2.3438 0-2.3438h6.5742c1.543 0 1.543 2.3438 0 2.3438z"/>
  <path d="m59.242 70.051c-0.64844 0-1.1719-0.52734-1.1719-1.1719v-6.5703c0-1.543 2.3438-1.543 2.3438 0v6.5703c0 0.64844-0.52344 1.1719-1.1719 1.1719z"/>
  <path d="m62.531 66.766h-6.5742c-1.543 0-1.543-2.3438 0-2.3438h6.5742c1.543 0 1.543 2.3438 0 2.3438z"/>
  <path d="m32.406 70.051c-0.64844 0-1.1719-0.52734-1.1719-1.1719v-4.3828c0-1.543 2.3438-1.543 2.3438 0v4.3828c0 0.64844-0.52344 1.1719-1.1719 1.1719z"/>
  <path d="m34.598 67.859h-4.3828c-1.543 0-1.543-2.3438 0-2.3438h4.3828c1.543 0 1.543 2.3438 0 2.3438z"/>
 </g>
</svg>