<svg xmlns="http://www.w3.org/2000/svg" data-name="Layer 1" viewBox="0 0 100 125" x="0px" y="0px"><title>Artboard 9</title><path d="M66,73a4,4,0,0,0,0,8h7a8,8,0,0,0,8-8V27a8,8,0,0,0-8-8H66a4,4,0,0,0,0,8h7V37H66a4,4,0,0,0,0,8h7V55H66a4,4,0,0,0,0,8h7V73Z"/><path d="M24.9,63.87a6.75,6.75,0,0,0-3.72,1.88A7.09,7.09,0,0,0,19,70.86V78a4,4,0,0,0,4,4h0a4,4,0,0,0,4-4V71.63a21.89,21.89,0,0,0,8.46-3.51L40,72.63a4,4,0,0,0,5.66,0h0a4,4,0,0,0,0-5.66l-4.51-4.51A21.87,21.87,0,0,0,44.63,54H51a4,4,0,0,0,0-8H44.63a21.87,21.87,0,0,0-3.51-8.46L45.63,33a4,4,0,0,0,0-5.66h0a4,4,0,0,0-5.66,0l-4.51,4.51A21.87,21.87,0,0,0,27,28.37V22a4,4,0,0,0-4-4h0a4,4,0,0,0-4,4v7.14a7.09,7.09,0,0,0,2.18,5.12,6.74,6.74,0,0,0,3.72,1.88,14,14,0,0,1,0,27.74Z"/></svg>