<svg xmlns="http://www.w3.org/2000/svg" version="1.1" viewBox="-5.0 -10.0 110.0 135.0">
 <path d="m62.5 50c0 5.0547-3.0469 9.6133-7.7148 11.547-4.6719 1.9375-10.051 0.86719-13.625-2.707-3.5742-3.5742-4.6445-8.9531-2.707-13.625 1.9336-4.668 6.4922-7.7148 11.547-7.7148 3.3164 0 6.4961 1.3164 8.8398 3.6602s3.6602 5.5234 3.6602 8.8398zm29.875 5.3125c-4.1289 7.6914-10.23 14.145-17.676 18.703-7.4492 4.5586-15.973 7.0547-24.699 7.2344-8.7266-0.17969-17.25-2.6758-24.699-7.2344-7.4453-4.5586-13.547-11.012-17.676-18.703-1.8438-3.3008-1.8438-7.3242 0-10.625 4.1289-7.6914 10.23-14.145 17.676-18.703 7.4492-4.5586 15.973-7.0547 24.699-7.2344 8.7266 0.17969 17.25 2.6758 24.699 7.2344 7.4453 4.5586 13.547 11.012 17.676 18.703 1.8438 3.3008 1.8438 7.3242 0 10.625zm-23.625-5.3125c0-4.9727-1.9766-9.7422-5.4922-13.258-3.5156-3.5156-8.2852-5.4922-13.258-5.4922s-9.7422 1.9766-13.258 5.4922c-3.5156 3.5156-5.4922 8.2852-5.4922 13.258s1.9766 9.7422 5.4922 13.258c3.5156 3.5156 8.2852 5.4922 13.258 5.4922s9.7422-1.9766 13.258-5.4922c3.5156-3.5156 5.4922-8.2852 5.4922-13.258z"/>
</svg>