<svg xmlns="http://www.w3.org/2000/svg" xmlns:xlink="http://www.w3.org/1999/xlink" version="1.1" x="0px" y="0px" viewBox="0 0 64 80" enable-background="new 0 0 64 64" xml:space="preserve"><polygon points="50,3 50,6 41,6 41,8 50,8 50,12 45,12 45,14 50,14 50,18 41,18 41,20 50,20 50,24 45,24 45,26 50,26 50,30 41,30   41,32 50,32 50,36 45,36 45,38 50,38 50,42 41,42 41,44 50,44 50,48 45,48 45,50 50,50 50,54 41,54 41,56 50,56 50,60 23,60 23,62   50,62 51,62 52,62 52,3 "/><rect x="5" y="36" width="27.691" height="2"/><path d="M31.616,32.767H18.461v2h13.155c3.521,0,6.384-2.864,6.384-6.383S35.137,22,31.616,22v2C34.033,24,36,25.966,36,28.383  S34.033,32.767,31.616,32.767z"/><path d="M26.931,27.309c0-2.333-1.896-4.232-4.229-4.232v2c1.229,0,2.229,1.001,2.229,2.232c0,1.229-1,2.229-2.229,2.229H5v2h17.766  v-0.006C25.067,31.496,26.931,29.618,26.931,27.309z"/><rect x="11.149" y="26.309" width="7.542" height="2"/><rect x="5" y="32.767" width="5.461" height="2"/></svg>