<svg xmlns="http://www.w3.org/2000/svg" xmlns:xlink="http://www.w3.org/1999/xlink" version="1.1" x="0px" y="0px" viewBox="0 0 49.5 61.875" enable-background="new 0 0 49.5 49.5" xml:space="preserve"><path d="M27.347,15.377c-0.15,0.814,0.388,1.597,1.202,1.747c0.817,0.158,1.598-0.387,1.748-1.202  c0.464-2.512,2.841-4.185,5.344-3.824c0.069,0.009,0.14,0.01,0.208,0.021c2.565,0.485,4.265,2.962,3.79,5.53  c-0.024,0.132-0.025,0.262-0.015,0.39c-0.553,2.01-2.378,3.5-4.562,3.5c-0.093,0-0.183,0.011-0.271,0.027  c-0.088-0.017-0.178-0.027-0.271-0.027h-23.25c-0.829,0-1.5,0.672-1.5,1.5s0.671,1.5,1.5,1.5h23.25c0.093,0,0.183-0.012,0.271-0.027  c0.088,0.016,0.178,0.027,0.271,0.027c4.273,0,7.75-3.477,7.75-7.75c0-4.068-3.152-7.406-7.141-7.719  C35.53,9.057,35.39,9.054,35.25,9.049c-0.063-0.002-0.124-0.01-0.188-0.01c-0.009,0-0.018,0.003-0.027,0.003  C31.345,9.008,28.041,11.625,27.347,15.377z"/><path d="M34.521,20.705c0.829,0,1.5-0.672,1.5-1.5s-0.671-1.5-1.5-1.5h-9.875c-0.829,0-1.5,0.672-1.5,1.5s0.671,1.5,1.5,1.5H34.521z  "/><path d="M42.521,26.039H15.146c-0.829,0-1.5,0.672-1.5,1.5s0.671,1.5,1.5,1.5h27.375c0.829,0,1.5-0.672,1.5-1.5  S43.349,26.039,42.521,26.039z"/><path d="M20.521,20.705c0.828,0,1.5-0.672,1.5-1.5c0-0.829-0.672-1.5-1.5-1.5l-5.375,0.001c-0.828,0-1.5,0.672-1.5,1.5  c0,0.829,0.672,1.5,1.5,1.5L20.521,20.705z"/><path d="M36.837,30.334c-0.772-0.306-1.643,0.067-1.949,0.838l-1.001,2.508c-0.307,0.769,0.067,1.642,0.837,1.949  c0.183,0.072,0.371,0.106,0.556,0.106c0.596,0,1.159-0.356,1.394-0.944l1.001-2.508C37.981,31.515,37.607,30.642,36.837,30.334z"/><path d="M30.504,30.334c-0.771-0.306-1.642,0.067-1.949,0.838l-1.001,2.508c-0.307,0.769,0.067,1.642,0.837,1.949  c0.183,0.072,0.371,0.106,0.556,0.106c0.596,0,1.159-0.356,1.394-0.944l1.001-2.508C31.648,31.515,31.273,30.642,30.504,30.334z"/><path d="M24.17,30.334c-0.772-0.306-1.643,0.067-1.949,0.838L21.22,33.68c-0.307,0.769,0.067,1.642,0.837,1.949  c0.183,0.072,0.371,0.106,0.556,0.106c0.596,0,1.159-0.356,1.394-0.944l1.001-2.508C25.314,31.515,24.94,30.642,24.17,30.334z"/><path d="M17.837,30.334c-0.771-0.306-1.642,0.067-1.949,0.838l-1.001,2.508c-0.307,0.769,0.067,1.642,0.837,1.949  c0.183,0.072,0.371,0.106,0.556,0.106c0.596,0,1.159-0.356,1.394-0.944l1.001-2.508C18.981,31.515,18.606,30.642,17.837,30.334z"/><path d="M33.28,37.33c-0.003,0-0.007,0-0.011,0c-0.829,0.006-1.495,0.683-1.489,1.511l0.001,0.137  c0.006,0.825,0.676,1.489,1.5,1.489c0.003,0,0.007,0,0.011,0c0.829-0.006,1.495-0.683,1.489-1.511l-0.001-0.137  C34.774,37.994,34.104,37.33,33.28,37.33z"/><path d="M26.947,37.33c-0.003,0-0.007,0-0.011,0c-0.829,0.006-1.495,0.683-1.489,1.511l0.001,0.137  c0.006,0.825,0.676,1.489,1.5,1.489c0.003,0,0.007,0,0.011,0c0.829-0.006,1.495-0.683,1.489-1.511l-0.001-0.137  C28.441,37.994,27.771,37.33,26.947,37.33z"/><path d="M20.613,37.33c-0.003,0-0.007,0-0.011,0c-0.829,0.006-1.495,0.683-1.489,1.511l0.001,0.137  c0.006,0.825,0.676,1.489,1.5,1.489c0.003,0,0.007,0,0.011,0c0.829-0.006,1.495-0.683,1.489-1.511l-0.001-0.137  C22.107,37.994,21.437,37.33,20.613,37.33z"/><path d="M14.28,37.33c-0.003,0-0.007,0-0.011,0c-0.829,0.006-1.495,0.683-1.489,1.511l0.001,0.137  c0.006,0.825,0.676,1.489,1.5,1.489c0.003,0,0.007,0,0.011,0c0.829-0.006,1.495-0.683,1.489-1.511l-0.001-0.137  C15.774,37.994,15.104,37.33,14.28,37.33z"/><path d="M13.354,27.539c0-0.828-0.671-1.5-1.5-1.5H6.979c-0.829,0-1.5,0.672-1.5,1.5s0.671,1.5,1.5,1.5h4.875  C12.683,29.039,13.354,28.367,13.354,27.539z"/></svg>