<svg xmlns="http://www.w3.org/2000/svg" viewBox="0 0 32 40" x="0px" y="0px"><title>wind direction</title><g data-name="Layer 5"><path d="M25.72,4.28C23.5,2,23.5,2,23,2a1,1,0,0,0-.62,1.79l.21.21H13a1,1,0,0,0-.84-1l-6-1a1,1,0,0,0-1,1.5L6,5,5.14,6.49A1,1,0,0,0,6,8h.16l6-1A1,1,0,0,0,13,6h2v4.18a3,3,0,0,0-1,5L12,28.86A1,1,0,0,0,13,30h6a1,1,0,0,0,1-1.14L18,15.19a3,3,0,0,0-1-5V6h5.58l-.29.3A1,1,0,1,0,23.71,7.7l2-2A1,1,0,0,0,25.72,4.28ZM11,5.15l-3,.5.09-.14a1,1,0,0,0,0-1L8,4.34l3,.5ZM16,12a1,1,0,1,1-1,1A1,1,0,0,1,16,12Zm1.85,16H14.15l1.72-12h.26Z"/></g></svg>